<svg width="64" height="57" fill="none" xmlns="http://www.w3.org/2000/svg"><path d="M28.783 18.696c0-.817.37-1.225 1.112-1.225h2.313c.741 0 1.112.408 1.112 1.225l-.467 21.019c0 .667-.334 1.002-1.001 1.002h-1.601c-.668 0-1.001-.334-1.001-1.002l-.467-21.02zM29.806 49.4c-.667 0-1.001-.334-1.001-1.002v-2.716c0-.668.334-1.002 1-1.002h2.492c.667 0 1 .334 1 1.002v2.716c0 .668-.333 1.002-1 1.002h-2.491z" fill="#252525"/><path fill-rule="evenodd" clip-rule="evenodd" d="M59.941 50.35L33.644 4.75c-.73-1.267-2.557-1.267-3.288 0L4.06 50.35c-.731 1.267.182 2.85 1.643 2.85h52.596c1.46 0 2.374-1.583 1.643-2.85zm-23.01-47.5c-2.192-3.8-7.67-3.8-9.862 0L.771 48.45C-1.42 52.25 1.32 57 5.702 57h52.596c4.383 0 7.122-4.75 4.93-8.55L36.932 2.85z" fill="#252525"/></svg>