<svg width="62" height="64" fill="none" xmlns="http://www.w3.org/2000/svg"><path d="M57.364 62H4.636C3.23 62 2 60.783 2 59.391V11.565C2 10 3.23 8.957 4.636 8.957h52.728C58.77 8.957 60 10 60 11.565v47.826C60 60.783 58.77 62 57.364 62z" stroke="#252525" stroke-width="4" stroke-miterlimit="10" stroke-linecap="round" stroke-linejoin="round"/><path d="M21.158 24.26h-8.261v6.435h8.26v-6.434zm13.884 0h-8.26v6.435h8.26v-6.434zm13.885 0h-8.26v6.435h8.26v-6.434zm-27.769 9.914h-8.261v6.435h8.26v-6.435zm13.884 0h-8.26v6.435h8.26v-6.435zm13.885 0h-8.26v6.435h8.26v-6.435zM21.158 43.74h-8.261v6.434h8.26v-6.435zm13.884 0h-8.26v6.434h8.26v-6.435zm13.885 0h-8.26v6.434h8.26v-6.435z" fill="#252525"/><path d="M14.83 2v13.043M30.648 2v13.043M46.643 2v13.043" stroke="#252525" stroke-width="4" stroke-miterlimit="10" stroke-linecap="round" stroke-linejoin="round"/></svg>