<svg width="130" height="35" fill="none" xmlns="http://www.w3.org/2000/svg"><g clip-path="url(#clip0)"><path d="M47.495 32.808c-.673.405-1.469.753-2.387 1.042-.979.231-2.02.405-3.121.405-1.224 0-2.265-.174-3.183-.463-.918-.347-1.652-.81-2.203-1.389-.551-.579-.98-1.331-1.286-2.141-.306-.869-.428-1.794-.428-2.836 0-2.257.612-3.936 1.836-5.151 1.224-1.158 3-1.794 5.264-1.794.734 0 1.469.057 2.142.231.734.116 1.346.405 1.959.81.612.405 1.04.926 1.407 1.62.367.695.551 1.564.551 2.663v.926c0 .347-.061.695-.122 1.042H37.519c.061 1.505.428 2.662 1.224 3.473.796.752 2.08 1.157 3.978 1.157.796 0 1.53-.116 2.204-.347.734-.232 1.224-.521 1.652-.868l.918 1.62zm-1.958-6.771c.06-1.331-.245-2.258-.918-2.836-.612-.521-1.53-.81-2.693-.81-1.286 0-2.326.289-3.06.81-.735.52-1.225 1.505-1.347 2.836h8.018zm15.24 2.141h-7.345v5.672h-2.57V20.828h2.57v5.324h7.345v-5.324h2.57V33.85h-2.57v-5.672zm17.137 4.804c-.673.405-1.407.752-2.264.926-.857.232-1.775.29-2.755.29-1.224 0-2.264-.174-3.121-.521-.857-.348-1.53-.81-2.081-1.39-.55-.578-.918-1.33-1.163-2.14-.245-.869-.367-1.795-.367-2.837 0-2.2.612-3.878 1.775-5.093 1.163-1.215 2.938-1.794 5.141-1.794.98 0 1.836.058 2.57.231a15.43 15.43 0 011.96.58l-.674 1.851a7.263 7.263 0 00-1.591-.52 9.573 9.573 0 00-1.898-.174c-2.999 0-4.468 1.678-4.468 4.977 0 .637.062 1.216.245 1.852.184.579.428 1.1.796 1.563.367.463.857.81 1.469 1.1.612.289 1.346.405 2.203.405a6.7 6.7 0 002.02-.29 5.63 5.63 0 001.469-.694l.734 1.678zm.918-5.614c0-1.1.184-2.026.49-2.894.306-.868.796-1.562 1.408-2.2.612-.578 1.346-1.04 2.264-1.388.857-.29 1.898-.463 3-.463 1.162 0 2.203.174 3.12.52.919.348 1.653.811 2.204 1.448a5.875 5.875 0 011.347 2.199c.306.81.428 1.736.428 2.72 0 1.042-.183 2.026-.49 2.836a5.355 5.355 0 01-1.407 2.142 6.987 6.987 0 01-2.203 1.389c-.857.289-1.898.463-3 .463-1.224 0-2.264-.174-3.182-.521-.918-.347-1.653-.81-2.204-1.447-.612-.637-1.04-1.331-1.285-2.2-.306-.694-.49-1.62-.49-2.604zm2.816 0c0 .637.061 1.216.245 1.794.183.579.428 1.1.734 1.563.367.463.796.81 1.347 1.1.55.289 1.224.405 2.02.405 2.876 0 4.284-1.62 4.284-4.92 0-.636-.061-1.273-.245-1.852a6.238 6.238 0 00-.734-1.563 4.065 4.065 0 00-1.347-1.1c-.55-.289-1.224-.404-1.959-.404-1.407 0-2.509.405-3.243 1.215-.735.868-1.102 2.084-1.102 3.762zM98.602.918h8.324l5.447 14.817c.673 1.968 1.285 4.11 1.958 6.135h.184c.673-2.026 1.224-4.167 1.897-6.135L121.737.918h8.324v33.28h-6.916V22.044c0-3.242.612-8.103.979-11.287h-.183l-2.755 7.872-4.774 12.733h-4.223l-4.774-12.733-2.754-7.93h-.184c.368 3.242.98 8.045.98 11.287v12.212h-6.855V.918z" fill="#252525"/><path d="M16.097 7.113c2.448-.174 1.959-.174 13.404-.232V.862c-11.752-.231-9.242 0-13.588 0C7.1.862 0 7.055 0 17.704c0 9.955 5.998 15.511 13.588 16.38 0 0 1.163.115 1.713.115h.368c3.855 0 2.203.116 13.832 0v-6.135c-10.711.058-11.568.058-13.526-.116 0 0-1.775-.231-1.837-.231-3.855-.868-6.304-4.514-6.304-10.244 0-6.482 3.367-10.013 8.263-10.36z" fill="#EA2727"/><path d="M16.342 17.703v-.174c0-1.678 1.408-3.01 3.183-3.01 1.774 0 3.182 1.332 3.182 3.01v.174c0 1.678-1.408 3.01-3.183 3.01-1.774 0-3.182-1.332-3.182-3.01z" fill="#AF2525"/><path fill-rule="evenodd" clip-rule="evenodd" d="M20.245 17.616a.745.745 0 00-.223-.421.746.746 0 00-.498-.206.746.746 0 00-.72.627.745.745 0 00.223.421.746.746 0 00.498.206.746.746 0 00.72-.627zm-7.813-.087c0-3.76 3.184-6.733 7.092-6.733 3.909 0 7.093 2.973 7.093 6.733v.174c0 3.76-3.184 6.733-7.093 6.733-3.908 0-7.092-2.974-7.092-6.733v-.174z" fill="#EA2727"/><path d="M93.522 15.793H17.994v2.893h75.528v-2.893z" fill="#EA2727"/></g><defs><clipPath id="clip0"><path fill="#fff" d="M0 .745h130v33.511H0z"/></clipPath></defs></svg>