<svg width="64" height="57" viewBox="0 0 64 57" fill="none" xmlns="http://www.w3.org/2000/svg">
<path d="M28.7827 18.6958C28.7827 17.8794 29.1534 17.4712 29.8948 17.4712H32.2078C32.9492 17.4712 33.3198 17.8794 33.3198 18.6958L32.8528 39.7146C32.8528 40.3825 32.5192 40.7165 31.852 40.7165H30.2506C29.5834 40.7165 29.2498 40.3825 29.2498 39.7146L28.7827 18.6958ZM29.8058 49.4001C29.1386 49.4001 28.805 49.0661 28.805 48.3981V45.6817C28.805 45.0138 29.1386 44.6798 29.8058 44.6798H32.2968C32.964 44.6798 33.2976 45.0138 33.2976 45.6817V48.3981C33.2976 49.0661 32.964 49.4001 32.2968 49.4001H29.8058Z" fill="#252525"/>
<path fill-rule="evenodd" clip-rule="evenodd" d="M59.9415 50.35L33.6436 4.75C32.9131 3.48334 31.0869 3.48333 30.3564 4.75L4.05853 50.35C3.32804 51.6167 4.24115 53.2 5.70215 53.2H58.2979C59.7588 53.2 60.672 51.6167 59.9415 50.35ZM36.9308 2.85C34.7394 -0.950002 29.2606 -0.949998 27.0691 2.85L0.771298 48.45C-1.42019 52.25 1.31917 57 5.70215 57H58.2979C62.6808 57 65.4202 52.25 63.2287 48.45L36.9308 2.85Z" fill="#252525"/>
</svg>
