<svg width="130" height="35" viewBox="0 0 130 35" fill="none" xmlns="http://www.w3.org/2000/svg">
<g clip-path="url(#clip0)">
<path d="M47.4952 32.8082C46.822 33.2134 46.0263 33.5606 45.1082 33.85C44.129 34.0815 43.0885 34.2551 41.9868 34.2551C40.7627 34.2551 39.7222 34.0815 38.8041 33.7921C37.886 33.4449 37.1516 32.9818 36.6007 32.4031C36.0499 31.8243 35.6214 31.0719 35.3154 30.2616C35.0094 29.3935 34.887 28.4675 34.887 27.4257C34.887 25.1685 35.499 23.4901 36.7231 22.2746C37.9472 21.1171 39.7222 20.4805 41.9868 20.4805C42.7212 20.4805 43.4557 20.5383 44.129 20.712C44.8634 20.8277 45.4755 21.1171 46.0875 21.5223C46.6996 21.9274 47.128 22.4483 47.4952 23.1428C47.8625 23.8373 48.0461 24.7055 48.0461 25.8051C48.0461 26.0945 48.0461 26.3839 48.0461 26.7312C48.0461 27.0784 47.9849 27.4257 47.9237 27.7729H37.5188C37.58 29.2777 37.9472 30.4353 38.7429 31.2455C39.5386 31.9979 40.8239 32.4031 42.7212 32.4031C43.5169 32.4031 44.2514 32.2873 44.9246 32.0558C45.6591 31.8243 46.1487 31.5349 46.5772 31.1877L47.4952 32.8082ZM45.5367 26.0366C45.5979 24.7055 45.2919 23.7794 44.6186 23.2007C44.0065 22.6798 43.0885 22.3904 41.9256 22.3904C40.6403 22.3904 39.5998 22.6798 38.8653 23.2007C38.1308 23.7216 37.6412 24.7055 37.5188 26.0366H45.5367Z" fill="#252525"/>
<path d="M60.7768 28.178H53.4322V33.8499H50.8616V20.8276H53.4322V26.1523H60.7768V20.8276H63.3474V33.8499H60.7768V28.178Z" fill="#252525"/>
<path d="M77.9143 32.9821C77.241 33.3872 76.5065 33.7345 75.6497 33.9081C74.7928 34.1396 73.8747 34.1975 72.8954 34.1975C71.6713 34.1975 70.6308 34.0239 69.774 33.6766C68.9171 33.3294 68.2438 32.8664 67.693 32.2876C67.1421 31.7088 66.7749 30.9564 66.5301 30.1461C66.2853 29.278 66.1628 28.352 66.1628 27.3102C66.1628 25.1109 66.7749 23.4324 67.9378 22.217C69.1007 21.0016 70.8757 20.4229 73.079 20.4229C74.0583 20.4229 74.9152 20.4807 75.6497 20.6544C76.3841 20.828 76.9962 21.0016 77.6082 21.2331L76.935 23.0852C76.4453 22.8537 75.8945 22.68 75.3436 22.5643C74.7928 22.4485 74.1195 22.3907 73.4463 22.3907C70.4472 22.3907 68.9783 24.0691 68.9783 27.3681C68.9783 28.0047 69.0395 28.5835 69.2231 29.2201C69.4067 29.7989 69.6515 30.3198 70.0188 30.7828C70.386 31.2458 70.8757 31.5931 71.4877 31.8824C72.0998 32.1718 72.8342 32.2876 73.6911 32.2876C74.4868 32.2876 75.16 32.1718 75.7109 31.9982C76.2617 31.8246 76.7514 31.5931 77.1798 31.3037L77.9143 32.9821Z" fill="#252525"/>
<path d="M78.8324 27.3681C78.8324 26.2684 79.016 25.3424 79.322 24.4742C79.6281 23.6061 80.1177 22.9116 80.7298 22.2749C81.3418 21.6961 82.0763 21.2331 82.9944 20.8859C83.8512 20.5965 84.8917 20.4229 85.9934 20.4229C87.1563 20.4229 88.1968 20.5965 89.1149 20.9437C90.033 21.291 90.7674 21.754 91.3183 22.3907C91.9303 23.0273 92.3588 23.7218 92.6648 24.59C92.9708 25.4003 93.0932 26.3263 93.0932 27.3102C93.0932 28.352 92.9096 29.3359 92.6036 30.1461C92.2976 31.0143 91.8079 31.7088 91.1959 32.2876C90.5838 32.8663 89.8493 33.3294 88.9925 33.6766C88.1356 33.966 87.0951 34.1396 85.9934 34.1396C84.7693 34.1396 83.7288 33.966 82.8107 33.6187C81.8927 33.2715 81.1582 32.8085 80.6073 32.1718C79.9953 31.5352 79.5669 30.8407 79.322 29.9725C79.016 29.278 78.8324 28.352 78.8324 27.3681ZM81.6478 27.3681C81.6478 28.0047 81.709 28.5835 81.8927 29.1622C82.0763 29.741 82.3211 30.2619 82.6271 30.7249C82.9944 31.1879 83.4228 31.5352 83.9736 31.8246C84.5245 32.114 85.1977 32.2297 85.9934 32.2297C88.8701 32.2297 90.2778 30.6092 90.2778 27.3102C90.2778 26.6735 90.2166 26.0369 90.033 25.4581C89.8494 24.8794 89.6045 24.3585 89.2985 23.8955C88.9313 23.4324 88.5028 23.0852 87.952 22.7958C87.4011 22.5064 86.7279 22.3907 85.9934 22.3907C84.5857 22.3907 83.484 22.7958 82.7495 23.6061C82.0151 24.4742 81.6478 25.6896 81.6478 27.3681Z" fill="#252525"/>
<path d="M98.6017 0.918457H106.926L112.373 15.7349C113.046 17.7027 113.658 19.8442 114.331 21.8698H114.515C115.188 19.8442 115.739 17.7027 116.412 15.7349L121.737 0.918457H130.061V34.1976H123.145V22.0435C123.145 18.8024 123.757 13.9407 124.124 10.7575H123.941L121.186 18.6287L116.412 31.3616H112.189L107.415 18.6287L104.661 10.6996H104.477C104.845 13.9407 105.457 18.7445 105.457 21.9856V34.1976H98.6017V0.918457Z" fill="#252525"/>
<path d="M16.097 7.11286C18.5452 6.93923 18.0556 6.93923 29.5009 6.88135V0.862169C17.7495 0.630662 20.2589 0.862169 15.9134 0.862169C7.09981 0.862169 0 7.05498 0 17.7043C0 27.6591 5.99812 33.2153 13.5876 34.0834C13.5876 34.0834 14.7505 34.1992 15.3013 34.1992C15.4237 34.1992 15.6686 34.1992 15.6686 34.1992C19.5245 34.1992 17.8719 34.3149 29.5009 34.1992V28.0642C18.79 28.1221 17.9331 28.1221 15.9746 27.9485C15.9746 27.9485 14.1996 27.717 14.1384 27.717C10.2825 26.8488 7.83428 23.2026 7.83428 17.4728C7.83428 10.9906 11.2006 7.46012 16.097 7.11286Z" fill="#EA2727"/>
<path d="M16.3418 17.7028V17.5291C16.3418 15.8507 17.7495 14.5195 19.5245 14.5195C21.2994 14.5195 22.7071 15.8507 22.7071 17.5291V17.7028C22.7071 19.3812 21.2994 20.7123 19.5245 20.7123C17.7495 20.7123 16.3418 19.3812 16.3418 17.7028Z" fill="#AF2525"/>
<path fill-rule="evenodd" clip-rule="evenodd" d="M20.2452 17.6157C20.241 17.5868 20.2347 17.5578 20.2265 17.5289C20.1919 17.4074 20.1222 17.289 20.0223 17.1946C19.8756 17.0558 19.6857 16.9887 19.5245 16.9887C19.3632 16.9887 19.1733 17.0558 19.0266 17.1946C18.9267 17.289 18.857 17.4074 18.8224 17.5289C18.8142 17.5578 18.8079 17.5868 18.8037 17.6157C18.8079 17.6446 18.8142 17.6737 18.8224 17.7025C18.857 17.824 18.9267 17.9424 19.0266 18.0368C19.1733 18.1756 19.3632 18.2427 19.5245 18.2427C19.6857 18.2427 19.8756 18.1756 20.0223 18.0368C20.1222 17.9424 20.1919 17.824 20.2265 17.7025C20.2347 17.6737 20.241 17.6446 20.2452 17.6157ZM12.432 17.5289C12.432 13.7693 15.6163 10.7959 19.5245 10.7959C23.4326 10.7959 26.6169 13.7693 26.6169 17.5289V17.7025C26.6169 21.4621 23.4326 24.4355 19.5245 24.4355C15.6163 24.4355 12.432 21.4621 12.432 17.7025V17.5289Z" fill="#EA2727"/>
<path d="M93.5216 15.7925H17.9943V18.6863H93.5216V15.7925Z" fill="#EA2727"/>
</g>
<defs>
<clipPath id="clip0">
<rect y="0.744629" width="130" height="33.5106" fill="white"/>
</clipPath>
</defs>
</svg>
